<?xml version="1.0" encoding="UTF-8"?>
<!DOCTYPE svg PUBLIC "-//W3C//DTD SVG 1.1//EN" "http://www.w3.org/Graphics/SVG/1.1/DTD/svg11.dtd">
<!-- Creator: CorelDRAW 2020 (64-Bit) -->
<svg xmlns="http://www.w3.org/2000/svg" xml:space="preserve" width="297mm" height="420mm" version="1.1" style="shape-rendering:geometricPrecision; text-rendering:geometricPrecision; image-rendering:optimizeQuality; fill-rule:evenodd; clip-rule:evenodd"
viewBox="0 0 29700 42000"
 xmlns:xlink="http://www.w3.org/1999/xlink"
 xmlns:xodm="http://www.corel.com/coreldraw/odm/2003">
 <defs>
  <style type="text/css">
   <![CDATA[
    .str0 {stroke:#A1DDF8;stroke-width:20;stroke-miterlimit:22.9256}
    .fil2 {fill:none}
    .fil3 {fill:#FEFEFE}
    .fil4 {fill:#A1DDF8}
    .fil1 {fill:#0C96C9}
    .fil0 {fill:#0C96C9}
    .fil5 {fill:#00AFEF}
   ]]>
  </style>
 </defs>
 <g id="Capa_x0020_1">
  <metadata id="CorelCorpID_0Corel-Layer"/>
  <polygon class="fil0" points="4507.83,11729.17 4618.15,4229.44 10145.66,8550.54 "/>
  <path class="fil1" d="M4640.86 19244.3l0.01 0 -0.01 0zm-1152.19 11.79l940.43 -6976.4 6157.46 -3494.64 5056.44 3.34 6122.17 3486.34 890.42 6905.49 -1131.58 -2.39 -1717.2 27.65 836.37 -739.93 876.58 -1262.16 -2549.1 -4511.3 -3628.15 36.79 -4726.83 18.69 -3037.11 60.05 -2894.56 4389.28 822.49 1273.22 3784.63 3354.99 -2935.54 -2602.29 -2010.01 17.79 -856.91 15.48zm16056.84 180.55l-2671.88 2363.77 7.54 8.21 2664.34 -2371.98z"/>
  <polygon class="fil2" points="21519.76,17203.39 20643.18,18465.55 16872.21,21801.67 15222.83,20001.93 16492.32,24509.77 14722.01,27796.34 13125.7,26620.17 11542.18,27813.61 9833.98,24600.75 10937.86,20031.89 9291.13,21825.11 5506.5,18470.12 4684.01,17196.9 7578.57,12807.62 10615.11,12747.8 13097.93,17653.91 15355.99,12739.5 18970.66,12692.09 "/>
  <polygon class="fil1" points="16074.44,8561.58 21641.37,4172.15 21693.41,11659.97 "/>
  <polygon class="fil3" points="5106.85,5165.92 5258.78,10534.31 8854.63,8407.18 "/>
  <polygon class="fil1" points="7643.98,17352.07 12199.17,19185.21 10146.9,19792.78 "/>
  <polygon class="fil1" points="11760.14,24534.59 14483.67,24530.2 13100.79,26271.42 "/>
  <polygon class="fil1" points="18595.26,17321.33 14054.12,19224.77 16007.99,19818.29 "/>
  <polygon class="fil4" points="15355.99,12739.5 13104.49,17651.71 10621.67,12745.6 "/>
  <polygon class="fil4 str0" points="6355.59,19222.82 9291.13,21825.11 10937.86,20031.89 9833.98,24600.75 11542.18,27813.61 13125.7,26620.17 14722.01,27796.34 16492.32,24509.77 15222.83,20001.93 16881.17,21808.62 19805.19,19205.46 21520.88,19178.32 21382.76,21217.18 19421.28,22305.83 16227.01,26405.06 15429.09,27917.73 13095.82,28989.21 10711.56,27908.5 10107.66,26626.46 6886.08,22413.54 4776.91,21110.62 4640.87,19244.3 "/>
  <polygon class="fil5" points="8995.07,24113.48 8995.47,24117.46 10952.82,19990.19 9287.17,21804.01 9290.45,21806.93 "/>
  <polygon class="fil0" points="9290.45,21806.92 8994.98,24114.17 5363.19,18338.04 "/>
  <polygon class="fil5" points="17171.46,24109.35 17171.07,24113.32 15213.71,19986.05 16879.37,21799.88 16876.09,21802.8 "/>
  <polygon class="fil1" points="16876.09,21802.79 17171.55,24110.03 20803.35,18333.9 "/>
 </g>
</svg>
